<?xml version="1.0" standalone="no"?>
<!DOCTYPE svg PUBLIC "-//W3C//DTD SVG 20010904//EN"
 "http://www.w3.org/TR/2001/REC-SVG-20010904/DTD/svg10.dtd">
<svg version="1.0" xmlns="http://www.w3.org/2000/svg"
 width="260.000000pt" height="260.000000pt" viewBox="0 0 260.000000 260.000000"
 preserveAspectRatio="xMidYMid meet">
<metadata>
Created by potrace 1.14, written by Peter Selinger 2001-2017
</metadata>
<g transform="translate(0.000000,260.000000) scale(0.100000,-0.100000)"
fill="#000000" stroke="none">
<path d="M0 1300 l0 -1300 1300 0 1300 0 0 1300 0 1300 -1300 0 -1300 0 0
-1300z m1855 405 c130 -39 246 -170 276 -313 58 -279 -183 -534 -468 -494
-171 24 -296 134 -348 307 l-12 40 -185 3 -185 2 -18 -40 c-39 -87 -143 -148
-234 -137 -201 24 -292 262 -153 403 39 39 120 74 172 74 87 0 195 -74 222
-152 l10 -28 185 2 185 3 23 66 c75 223 298 334 530 264z"/>
<path d="M1625 1593 c-256 -92 -272 -444 -26 -556 67 -31 179 -30 243 1 172
85 227 290 120 444 -72 102 -222 152 -337 111z"/>
</g>
</svg>
